# xmcd
#
# Track frame offsets: 
#        150
#        19657
#        46667
#        66923
#        90283
#        113310
#        136818
#        162037
#        178564
#        199639
#        217127
#        236171
#
# Disc length: 3290 seconds
#
# Revision: 0
# Processed by: cddbd v1.5.2PL0 Copyright (c) Steve Scherf et al.
# Submitted via: ExactAudioCopy v0.95b4
#
DISCID=920cd80c
DTITLE=Café Del Mar Volumen Dieciocho [CD 1) - Café Del Mar Volumen Di
DTITLE=eciocho [CD 1)
DYEAR=2012
DGENRE=
TTITLE0=Love Is Wise (D Note) - D*Note 
TTITLE1=Hideaway (Blank and Jones) - Blank and Jones - Caesar, Jason
TTITLE2=The Park (Bent) - Coco, Chris
TTITLE3=Love Is My Condition (Faithless) - Bent
TTITLE4=The Rush (Ultra Nate) - Ultra Naté
TTITLE5=Sunset Disco (Lux) - Lux
TTITLE6=Right Beside You (Hannah ILD) - Singh, Talvin - Kumar, Niladri
TTITLE6=
TTITLE7=Goldfish (Chicane) - Chicane
TTITLE8=Trouble In Paradise (Unkle) - Unkle
TTITLE9=Lie Down In Darkness (Ben Hoo s Dorian Vibe Rmx) (Moby) - Moby
TTITLE10=Big Blue Moon (Ben Onono) - Onono, Ben
TTITLE11=Dischord (Lamb) - Lamb
EXTD=
EXTT0=
EXTT1=
EXTT2=
EXTT3=
EXTT4=
EXTT5=
EXTT6=
EXTT7=
EXTT8=
EXTT9=
EXTT10=
EXTT11=
PLAYORDER=
